<svg width="242" height="48" viewBox="0 0 242 48" fill="none" xmlns="http://www.w3.org/2000/svg">
<g clip-path="url(#clip0_73_1509)">
<path d="M23.312 21.0003H21.688L19.5 27.0003H21.107L21.553 25.7743H23.447L23.893 27.0003H25.5L23.312 21.0003ZM21.918 24.7743L22.5 23.1803L23.082 24.7753L21.918 24.7743ZM30.744 21.0003H27.244V27.0003H28.744V25.0003H30.744C30.942 25.0039 31.1387 24.9676 31.3223 24.8935C31.506 24.8195 31.6728 24.7091 31.8128 24.5691C31.9528 24.429 32.0632 24.2622 32.1373 24.0786C32.2114 23.8949 32.2477 23.6982 32.244 23.5003V22.5003C32.2477 22.3023 32.2114 22.1056 32.1373 21.9219C32.0632 21.7383 31.9528 21.5715 31.8128 21.4314C31.6728 21.2914 31.506 21.1811 31.3223 21.107C31.1387 21.0329 30.942 20.9966 30.744 21.0003ZM30.744 23.5003H28.744V22.5003H30.744V23.5003ZM34 21.0003H35.5V27.0003H34V21.0003Z" fill="#369FFF"/>
<path d="M38 18V30H18V18H38ZM38 16H18C17.4696 16 16.9609 16.2107 16.5858 16.5858C16.2107 16.9609 16 17.4696 16 18V30C16 30.5304 16.2107 31.0391 16.5858 31.4142C16.9609 31.7893 17.4696 32 18 32H38C38.5304 32 39.0391 31.7893 39.4142 31.4142C39.7893 31.0391 40 30.5304 40 30V18C40 17.4696 39.7893 16.9609 39.4142 16.5858C39.0391 16.2107 38.5304 16 38 16Z" fill="#369FFF"/>
</g>
<path d="M56.28 29.5L59.654 19.42H61.39L64.764 29.5H63.469L60.312 20.148H60.704L57.575 29.5H56.28ZM57.904 27.141V25.972H63.14V27.141H57.904ZM66.0171 29.5V19.42H70.0001C70.0981 19.42 70.2148 19.4247 70.3501 19.434C70.4854 19.4387 70.6161 19.4527 70.7421 19.476C71.2881 19.56 71.7454 19.7467 72.1141 20.036C72.4874 20.3253 72.7674 20.6917 72.9541 21.135C73.1408 21.5737 73.2341 22.0613 73.2341 22.598C73.2341 23.13 73.1384 23.6177 72.9471 24.061C72.7604 24.4997 72.4804 24.866 72.1071 25.16C71.7384 25.4493 71.2834 25.636 70.7421 25.72C70.6161 25.7387 70.4854 25.7527 70.3501 25.762C70.2148 25.7713 70.0981 25.776 70.0001 25.776H67.2631V29.5H66.0171ZM67.2631 24.593H69.9581C70.0468 24.593 70.1471 24.5883 70.2591 24.579C70.3758 24.5697 70.4854 24.5533 70.5881 24.53C70.9101 24.4553 71.1714 24.32 71.3721 24.124C71.5774 23.9233 71.7268 23.69 71.8201 23.424C71.9134 23.1533 71.9601 22.878 71.9601 22.598C71.9601 22.318 71.9134 22.045 71.8201 21.779C71.7268 21.5083 71.5774 21.2727 71.3721 21.072C71.1714 20.8713 70.9101 20.736 70.5881 20.666C70.4854 20.638 70.3758 20.6217 70.2591 20.617C70.1471 20.6077 70.0468 20.603 69.9581 20.603H67.2631V24.593ZM74.7704 29.5V19.42H76.0164V29.5H74.7704Z" fill="#369FFF"/>
<defs>
<clipPath id="clip0_73_1509">
<rect width="24" height="24" fill="white" transform="translate(16 12)"/>
</clipPath>
</defs>
</svg>
