<svg width="242" height="49" viewBox="0 0 242 49" fill="none" xmlns="http://www.w3.org/2000/svg">
<path d="M20 30.5L20.002 26.5215C20.0025 26.2455 20.2265 26.0215 20.502 26.0215H25.5035C25.964 26.0215 25.9615 25.6125 25.9615 24.6395C25.9615 23.6665 23.511 22.847 23.511 19.4265C23.511 16.006 26.05 15 28.16 15C30.27 15 32.568 16.006 32.568 19.4265C32.568 22.847 30.13 23.391 30.13 24.6395C30.13 25.888 30.13 26.0215 30.5205 26.0215H35.5005C35.6331 26.0215 35.7603 26.0742 35.8541 26.1679C35.9478 26.2617 36.0005 26.3889 36.0005 26.5215V30.5H20Z" stroke="#369FFF" stroke-width="1.5" stroke-linejoin="round"/>
<path d="M20 33.5H36" stroke="#369FFF" stroke-width="1.5" stroke-linecap="round" stroke-linejoin="round"/>
<path d="M56.36 31L60.446 18.04H63.623L67.709 31H65.477L61.769 19.372H62.255L58.592 31H56.36ZM58.637 28.192V26.167H65.441V28.192H58.637ZM72.9812 31.279C72.2612 31.279 71.6672 31.159 71.1992 30.919C70.7312 30.679 70.3592 30.373 70.0832 30.001C69.8072 29.629 69.6032 29.233 69.4712 28.813C69.3392 28.393 69.2522 27.997 69.2102 27.625C69.1742 27.247 69.1562 26.941 69.1562 26.707V21.28H71.3522V25.96C71.3522 26.26 71.3732 26.599 71.4152 26.977C71.4572 27.349 71.5532 27.709 71.7032 28.057C71.8592 28.399 72.0872 28.681 72.3872 28.903C72.6932 29.125 73.1042 29.236 73.6202 29.236C73.8962 29.236 74.1692 29.191 74.4392 29.101C74.7092 29.011 74.9522 28.858 75.1682 28.642C75.3902 28.42 75.5672 28.117 75.6992 27.733C75.8312 27.349 75.8972 26.863 75.8972 26.275L77.1842 26.824C77.1842 27.652 77.0222 28.402 76.6982 29.074C76.3802 29.746 75.9092 30.283 75.2852 30.685C74.6612 31.081 73.8932 31.279 72.9812 31.279ZM76.1582 31V27.985H75.8972V21.28H78.0752V31H76.1582ZM84.5008 31.27C83.6068 31.27 82.8268 31.045 82.1608 30.595C81.4948 30.145 80.9788 29.533 80.6128 28.759C80.2468 27.985 80.0638 27.112 80.0638 26.14C80.0638 25.156 80.2468 24.28 80.6128 23.512C80.9848 22.738 81.5098 22.129 82.1878 21.685C82.8658 21.235 83.6638 21.01 84.5818 21.01C85.5058 21.01 86.2798 21.235 86.9038 21.685C87.5338 22.129 88.0108 22.738 88.3348 23.512C88.6588 24.286 88.8208 25.162 88.8208 26.14C88.8208 27.106 88.6588 27.979 88.3348 28.759C88.0108 29.533 87.5278 30.145 86.8858 30.595C86.2438 31.045 85.4488 31.27 84.5008 31.27ZM84.8338 29.326C85.4158 29.326 85.8838 29.194 86.2378 28.93C86.5978 28.66 86.8588 28.285 87.0208 27.805C87.1888 27.325 87.2728 26.77 87.2728 26.14C87.2728 25.504 87.1888 24.949 87.0208 24.475C86.8588 23.995 86.6038 23.623 86.2558 23.359C85.9078 23.089 85.4578 22.954 84.9058 22.954C84.3238 22.954 83.8438 23.098 83.4658 23.386C83.0878 23.668 82.8088 24.052 82.6288 24.538C82.4488 25.018 82.3588 25.552 82.3588 26.14C82.3588 26.734 82.4458 27.274 82.6198 27.76C82.7998 28.24 83.0728 28.621 83.4388 28.903C83.8048 29.185 84.2698 29.326 84.8338 29.326ZM87.2728 31V24.178H87.0028V18.04H89.1898V31H87.2728ZM91.8931 19.804V17.815H94.0621V19.804H91.8931ZM91.8931 31V21.28H94.0621V31H91.8931ZM102.455 31C101.813 31.12 101.183 31.171 100.565 31.153C99.953 31.141 99.404 31.03 98.918 30.82C98.432 30.604 98.063 30.265 97.811 29.803C97.589 29.383 97.472 28.954 97.46 28.516C97.448 28.078 97.442 27.583 97.442 27.031V18.58H99.602V26.905C99.602 27.295 99.605 27.637 99.611 27.931C99.623 28.225 99.686 28.465 99.8 28.651C100.016 29.011 100.361 29.212 100.835 29.254C101.309 29.296 101.849 29.272 102.455 29.182V31ZM95.678 22.981V21.28H102.455V22.981H95.678Z" fill="#369FFF"/>
</svg>
