<svg width="17" height="15" viewBox="0 0 17 15" fill="none" xmlns="http://www.w3.org/2000/svg">
<path d="M15 9.49977C14.0074 9.49977 13.2 8.69231 13.2 7.69977C13.2 6.70724 14.0074 5.89978 15 5.89978C15.9925 5.89978 16.8 6.70724 16.8 7.69977C16.8 8.69231 15.9925 9.49977 15 9.49977ZM15 7.09978C14.6691 7.09978 14.4 7.36897 14.4 7.69977C14.4 8.03057 14.6691 8.29977 15 8.29977C15.3308 8.29977 15.6 8.03057 15.6 7.69977C15.6 7.36897 15.3308 7.09978 15 7.09978Z" fill="#369FFF"/>
<path d="M13.8 8.29985H12.6C12.2687 8.29985 12 8.03119 12 7.69985C12 7.36851 12.2687 7.09985 12.6 7.09985H13.8C14.1313 7.09985 14.4 7.36851 14.4 7.69985C14.4 8.03119 14.1313 8.29985 13.8 8.29985Z" fill="#369FFF"/>
<path d="M1.8 9.49977C0.807461 9.49977 0 8.69231 0 7.69977C0 6.70724 0.807461 5.89978 1.8 5.89978C2.79253 5.89978 3.59999 6.70724 3.59999 7.69977C3.59999 8.69231 2.79253 9.49977 1.8 9.49977ZM1.8 7.09978C1.46919 7.09978 1.2 7.36897 1.2 7.69977C1.2 8.03057 1.46919 8.29977 1.8 8.29977C2.1308 8.29977 2.39999 8.03057 2.39999 7.69977C2.39999 7.36897 2.1308 7.09978 1.8 7.09978Z" fill="#369FFF"/>
<path d="M4.1999 8.29985H2.9999C2.66856 8.29985 2.3999 8.03119 2.3999 7.69985C2.3999 7.36851 2.66856 7.09985 2.9999 7.09985H4.1999C4.53124 7.09985 4.7999 7.36851 4.7999 7.69985C4.7999 8.03119 4.53124 8.29985 4.1999 8.29985Z" fill="#369FFF"/>
<path d="M4.2001 14.8998C4.11077 14.8998 4.02117 14.8799 3.93787 14.8394C3.73135 14.739 3.6001 14.5295 3.6001 14.2998V1.09985C3.6001 0.87016 3.73135 0.660682 3.93787 0.560259C4.14358 0.460347 4.38962 0.485794 4.57068 0.628296L12.9707 7.22829C13.1155 7.34186 13.2001 7.51583 13.2001 7.69985C13.2001 7.88387 13.1155 8.05783 12.9707 8.17155L4.57068 14.7715C4.46287 14.8562 4.33189 14.8998 4.20008 14.8998L4.2001 14.8998ZM4.8001 2.33446V13.0652L11.6288 7.69983L4.8001 2.33446Z" fill="#369FFF"/>
</svg>
