<svg width="242" height="49" viewBox="0 0 242 49" fill="none" xmlns="http://www.w3.org/2000/svg">
<path d="M30 18.5V16.5H26V18.5H30ZM20 20.5V31.5H36V20.5H20ZM36 18.5C37.11 18.5 38 19.39 38 20.5V31.5C38 32.61 37.11 33.5 36 33.5H20C18.89 33.5 18 32.61 18 31.5L18.01 20.5C18.01 19.39 18.89 18.5 20 18.5H24V16.5C24 15.39 24.89 14.5 26 14.5H30C31.11 14.5 32 15.39 32 16.5V18.5H36Z" fill="#369FFF"/>
<path d="M59.852 31.27C58.862 31.27 58.037 31.012 57.377 30.496C56.723 29.98 56.264 29.284 56 28.408L58.142 27.895C58.208 28.261 58.4 28.576 58.718 28.84C59.036 29.104 59.387 29.236 59.771 29.236C60.023 29.236 60.29 29.17 60.572 29.038C60.854 28.9 61.064 28.681 61.202 28.381C61.286 28.189 61.334 27.961 61.346 27.697C61.364 27.427 61.373 27.115 61.373 26.761V18.04H63.569V26.761C63.569 27.163 63.566 27.517 63.56 27.823C63.56 28.123 63.53 28.408 63.47 28.678C63.416 28.942 63.305 29.215 63.137 29.497C62.783 30.109 62.321 30.559 61.751 30.847C61.181 31.129 60.548 31.27 59.852 31.27ZM70.5706 31.27C69.5986 31.27 68.7496 31.051 68.0236 30.613C67.2976 30.175 66.7336 29.572 66.3316 28.804C65.9356 28.03 65.7376 27.142 65.7376 26.14C65.7376 25.12 65.9416 24.226 66.3496 23.458C66.7576 22.69 67.3246 22.09 68.0506 21.658C68.7766 21.226 69.6166 21.01 70.5706 21.01C71.5486 21.01 72.4006 21.229 73.1266 21.667C73.8526 22.105 74.4166 22.711 74.8186 23.485C75.2206 24.253 75.4216 25.138 75.4216 26.14C75.4216 27.148 75.2176 28.039 74.8096 28.813C74.4076 29.581 73.8436 30.184 73.1176 30.622C72.3916 31.054 71.5426 31.27 70.5706 31.27ZM70.5706 29.236C71.4346 29.236 72.0766 28.948 72.4966 28.372C72.9166 27.796 73.1266 27.052 73.1266 26.14C73.1266 25.198 72.9136 24.448 72.4876 23.89C72.0616 23.326 71.4226 23.044 70.5706 23.044C69.9886 23.044 69.5086 23.176 69.1306 23.44C68.7586 23.698 68.4826 24.061 68.3026 24.529C68.1226 24.991 68.0326 25.528 68.0326 26.14C68.0326 27.082 68.2456 27.835 68.6716 28.399C69.1036 28.957 69.7366 29.236 70.5706 29.236ZM82.0755 31.27C81.1275 31.27 80.3325 31.045 79.6905 30.595C79.0485 30.145 78.5655 29.533 78.2415 28.759C77.9175 27.979 77.7555 27.106 77.7555 26.14C77.7555 25.162 77.9175 24.286 78.2415 23.512C78.5655 22.738 79.0395 22.129 79.6635 21.685C80.2935 21.235 81.0705 21.01 81.9945 21.01C82.9125 21.01 83.7075 21.235 84.3795 21.685C85.0575 22.129 85.5825 22.738 85.9545 23.512C86.3265 24.28 86.5125 25.156 86.5125 26.14C86.5125 27.112 86.3295 27.985 85.9635 28.759C85.5975 29.533 85.0815 30.145 84.4155 30.595C83.7495 31.045 82.9695 31.27 82.0755 31.27ZM77.3865 31V18.04H79.5735V24.178H79.3035V31H77.3865ZM81.7425 29.326C82.3065 29.326 82.7715 29.185 83.1375 28.903C83.5035 28.621 83.7735 28.24 83.9475 27.76C84.1275 27.274 84.2175 26.734 84.2175 26.14C84.2175 25.552 84.1275 25.018 83.9475 24.538C83.7675 24.052 83.4885 23.668 83.1105 23.386C82.7325 23.098 82.2525 22.954 81.6705 22.954C81.1185 22.954 80.6685 23.089 80.3205 23.359C79.9725 23.623 79.7145 23.995 79.5465 24.475C79.3845 24.949 79.3035 25.504 79.3035 26.14C79.3035 26.77 79.3845 27.325 79.5465 27.805C79.7145 28.285 79.9755 28.66 80.3295 28.93C80.6895 29.194 81.1605 29.326 81.7425 29.326ZM92.0208 31.27C90.8208 31.27 89.8458 31 89.0958 30.46C88.3458 29.92 87.8898 29.161 87.7278 28.183L89.9418 27.841C90.0558 28.321 90.3078 28.699 90.6978 28.975C91.0878 29.251 91.5798 29.389 92.1738 29.389C92.6958 29.389 93.0978 29.287 93.3798 29.083C93.6678 28.873 93.8118 28.588 93.8118 28.228C93.8118 28.006 93.7578 27.829 93.6498 27.697C93.5478 27.559 93.3198 27.427 92.9658 27.301C92.6118 27.175 92.0688 27.016 91.3368 26.824C90.5208 26.608 89.8728 26.377 89.3928 26.131C88.9128 25.879 88.5678 25.582 88.3578 25.24C88.1478 24.898 88.0428 24.484 88.0428 23.998C88.0428 23.392 88.2018 22.864 88.5198 22.414C88.8378 21.964 89.2818 21.619 89.8518 21.379C90.4218 21.133 91.0938 21.01 91.8678 21.01C92.6238 21.01 93.2928 21.127 93.8748 21.361C94.4628 21.595 94.9368 21.928 95.2968 22.36C95.6568 22.792 95.8788 23.299 95.9628 23.881L93.7488 24.277C93.6948 23.863 93.5058 23.536 93.1818 23.296C92.8638 23.056 92.4378 22.921 91.9038 22.891C91.3938 22.861 90.9828 22.939 90.6708 23.125C90.3588 23.305 90.2028 23.56 90.2028 23.89C90.2028 24.076 90.2658 24.235 90.3918 24.367C90.5178 24.499 90.7698 24.631 91.1478 24.763C91.5318 24.895 92.1018 25.057 92.8578 25.249C93.6318 25.447 94.2498 25.675 94.7118 25.933C95.1798 26.185 95.5158 26.488 95.7198 26.842C95.9298 27.196 96.0348 27.625 96.0348 28.129C96.0348 29.107 95.6778 29.875 94.9638 30.433C94.2558 30.991 93.2748 31.27 92.0208 31.27Z" fill="#369FFF"/>
</svg>
