<svg width="242" height="49" viewBox="0 0 242 49" fill="none" xmlns="http://www.w3.org/2000/svg">
<g clip-path="url(#clip0_62_2918)">
<path d="M20.6667 23.1665H28.0001V24.2332H20.6667V23.1665Z" fill="#369FFF"/>
<path d="M20.6667 27.8335H27.3334V28.9002H20.6667V27.8335Z" fill="#369FFF"/>
<path d="M34.3066 23.9865C33.4535 23.9797 32.6182 24.2304 31.9099 24.7059C31.2015 25.1814 30.6531 25.8595 30.3362 26.6516C30.0194 27.4438 29.9489 28.313 30.1339 29.1459C30.3189 29.9787 30.7509 30.7363 31.3733 31.3198L30.08 32.8998L30.68 35.3065L33.12 32.3331C33.8923 32.5615 34.7143 32.5615 35.4866 32.3331L37.9266 35.3065L38.5266 32.8998L37.2333 31.3198C37.8557 30.7363 38.2877 29.9787 38.4727 29.1459C38.6577 28.313 38.5872 27.4438 38.2704 26.6516C37.9535 25.8595 37.4051 25.1814 36.6967 24.7059C35.9884 24.2304 35.1531 23.9797 34.3 23.9865H34.3066ZM34.3066 31.1065C33.7401 31.0986 33.1886 30.9234 32.7213 30.6029C32.2541 30.2824 31.8921 29.831 31.6807 29.3053C31.4693 28.7796 31.4181 28.2032 31.5335 27.6485C31.6488 27.0937 31.9256 26.5855 32.329 26.1877C32.7324 25.7898 33.2444 25.5201 33.8006 25.4124C34.3569 25.3048 34.9325 25.364 35.4552 25.5826C35.978 25.8012 36.4244 26.1694 36.7384 26.641C37.0523 27.1126 37.2199 27.6666 37.22 28.2331C37.2129 28.9999 36.9024 29.7327 36.3565 30.2712C35.8105 30.8097 35.0735 31.11 34.3066 31.1065Z" fill="#369FFF"/>
<path d="M28.6667 21.54C28.4948 21.2191 28.3968 20.8637 28.3801 20.5H20.6667V21.5667H28.7134L28.6667 21.54Z" fill="#369FFF"/>
<path d="M38.4533 22.7666H37.3333V23.5399C37.8397 23.8678 38.29 24.2752 38.6666 24.7466V22.7466L38.4533 22.7666Z" fill="#369FFF"/>
<path d="M18.6666 31.1667V17.8333H29.4266L30.1933 16.5H18.6666C18.313 16.5 17.9738 16.6405 17.7238 16.8905C17.4737 17.1406 17.3333 17.4797 17.3333 17.8333V31.1667C17.3333 31.5203 17.4737 31.8594 17.7238 32.1095C17.9738 32.3595 18.313 32.5 18.6666 32.5H28.6666L29.0466 32.0333L29.6666 31.2733L29.6066 31.1667H18.6666Z" fill="#369FFF"/>
<path d="M33.8999 13.26L30.0866 19.8334C29.9979 19.9636 29.9469 20.1158 29.9394 20.2732C29.9319 20.4306 29.9682 20.587 30.0441 20.7251C30.12 20.8631 30.2327 20.9775 30.3697 21.0554C30.5066 21.1334 30.6624 21.1719 30.8199 21.1667H38.4533C38.6107 21.1719 38.7666 21.1334 38.9035 21.0554C39.0405 20.9775 39.1531 20.8631 39.2291 20.7251C39.305 20.587 39.3412 20.4306 39.3337 20.2732C39.3262 20.1158 39.2753 19.9636 39.1866 19.8334L35.3733 13.26C35.2981 13.1314 35.1905 13.0247 35.0612 12.9506C34.932 12.8764 34.7856 12.8374 34.6366 12.8374C34.4876 12.8374 34.3412 12.8764 34.2119 12.9506C34.0827 13.0247 33.9751 13.1314 33.8999 13.26Z" fill="#369FFF"/>
</g>
<path d="M57.44 31V18.04H59.609V28.966H65.333V31H57.44ZM67.0377 19.804V17.815H69.2067V19.804H67.0377ZM67.0377 31V21.28H69.2067V31H67.0377ZM78.6256 31V26.32C78.6256 26.014 78.6046 25.675 78.5626 25.303C78.5206 24.931 78.4216 24.574 78.2656 24.232C78.1156 23.884 77.8876 23.599 77.5816 23.377C77.2816 23.155 76.8736 23.044 76.3576 23.044C76.0816 23.044 75.8086 23.089 75.5386 23.179C75.2686 23.269 75.0226 23.425 74.8006 23.647C74.5846 23.863 74.4106 24.163 74.2786 24.547C74.1466 24.925 74.0806 25.411 74.0806 26.005L72.7936 25.456C72.7936 24.628 72.9526 23.878 73.2706 23.206C73.5946 22.534 74.0686 22 74.6926 21.604C75.3166 21.202 76.0846 21.001 76.9966 21.001C77.7166 21.001 78.3106 21.121 78.7786 21.361C79.2466 21.601 79.6186 21.907 79.8946 22.279C80.1706 22.651 80.3746 23.047 80.5066 23.467C80.6386 23.887 80.7226 24.286 80.7586 24.664C80.8006 25.036 80.8216 25.339 80.8216 25.573V31H78.6256ZM71.8846 31V21.28H73.8196V24.295H74.0806V31H71.8846ZM87.233 31.27C86.231 31.27 85.376 31.048 84.668 30.604C83.96 30.154 83.417 29.542 83.039 28.768C82.667 27.994 82.478 27.118 82.472 26.14C82.478 25.144 82.673 24.262 83.057 23.494C83.447 22.72 83.999 22.114 84.713 21.676C85.427 21.232 86.276 21.01 87.26 21.01C88.364 21.01 89.297 21.289 90.059 21.847C90.827 22.399 91.328 23.155 91.562 24.115L89.402 24.7C89.234 24.178 88.955 23.773 88.565 23.485C88.175 23.191 87.731 23.044 87.233 23.044C86.669 23.044 86.204 23.179 85.838 23.449C85.472 23.713 85.202 24.079 85.028 24.547C84.854 25.015 84.767 25.546 84.767 26.14C84.767 27.064 84.974 27.811 85.388 28.381C85.802 28.951 86.417 29.236 87.233 29.236C87.809 29.236 88.262 29.104 88.592 28.84C88.928 28.576 89.18 28.195 89.348 27.697L91.562 28.192C91.262 29.182 90.737 29.944 89.987 30.478C89.237 31.006 88.319 31.27 87.233 31.27ZM97.5208 31.27C96.5368 31.27 95.6728 31.057 94.9288 30.631C94.1848 30.205 93.6028 29.614 93.1828 28.858C92.7688 28.102 92.5618 27.232 92.5618 26.248C92.5618 25.186 92.7658 24.265 93.1738 23.485C93.5818 22.699 94.1488 22.09 94.8748 21.658C95.6008 21.226 96.4408 21.01 97.3948 21.01C98.4028 21.01 99.2578 21.247 99.9598 21.721C100.668 22.189 101.193 22.852 101.535 23.71C101.877 24.568 102.006 25.579 101.922 26.743H99.7708V25.951C99.7648 24.895 99.5788 24.124 99.2128 23.638C98.8468 23.152 98.2708 22.909 97.4848 22.909C96.5968 22.909 95.9368 23.185 95.5048 23.737C95.0728 24.283 94.8568 25.084 94.8568 26.14C94.8568 27.124 95.0728 27.886 95.5048 28.426C95.9368 28.966 96.5668 29.236 97.3948 29.236C97.9288 29.236 98.3878 29.119 98.7718 28.885C99.1618 28.645 99.4618 28.3 99.6718 27.85L101.814 28.498C101.442 29.374 100.866 30.055 100.086 30.541C99.3118 31.027 98.4568 31.27 97.5208 31.27ZM94.1728 26.743V25.105H100.86V26.743H94.1728ZM110.389 31V26.32C110.389 26.014 110.368 25.675 110.326 25.303C110.284 24.931 110.185 24.574 110.029 24.232C109.879 23.884 109.651 23.599 109.345 23.377C109.045 23.155 108.637 23.044 108.121 23.044C107.845 23.044 107.572 23.089 107.302 23.179C107.032 23.269 106.786 23.425 106.564 23.647C106.348 23.863 106.174 24.163 106.042 24.547C105.91 24.925 105.844 25.411 105.844 26.005L104.557 25.456C104.557 24.628 104.716 23.878 105.034 23.206C105.358 22.534 105.832 22 106.456 21.604C107.08 21.202 107.848 21.001 108.76 21.001C109.48 21.001 110.074 21.121 110.542 21.361C111.01 21.601 111.382 21.907 111.658 22.279C111.934 22.651 112.138 23.047 112.27 23.467C112.402 23.887 112.486 24.286 112.522 24.664C112.564 25.036 112.585 25.339 112.585 25.573V31H110.389ZM103.648 31V21.28H105.583V24.295H105.844V31H103.648ZM118.687 31.27C117.487 31.27 116.512 31 115.762 30.46C115.012 29.92 114.556 29.161 114.394 28.183L116.608 27.841C116.722 28.321 116.974 28.699 117.364 28.975C117.754 29.251 118.246 29.389 118.84 29.389C119.362 29.389 119.764 29.287 120.046 29.083C120.334 28.873 120.478 28.588 120.478 28.228C120.478 28.006 120.424 27.829 120.316 27.697C120.214 27.559 119.986 27.427 119.632 27.301C119.278 27.175 118.735 27.016 118.003 26.824C117.187 26.608 116.539 26.377 116.059 26.131C115.579 25.879 115.234 25.582 115.024 25.24C114.814 24.898 114.709 24.484 114.709 23.998C114.709 23.392 114.868 22.864 115.186 22.414C115.504 21.964 115.948 21.619 116.518 21.379C117.088 21.133 117.76 21.01 118.534 21.01C119.29 21.01 119.959 21.127 120.541 21.361C121.129 21.595 121.603 21.928 121.963 22.36C122.323 22.792 122.545 23.299 122.629 23.881L120.415 24.277C120.361 23.863 120.172 23.536 119.848 23.296C119.53 23.056 119.104 22.921 118.57 22.891C118.06 22.861 117.649 22.939 117.337 23.125C117.025 23.305 116.869 23.56 116.869 23.89C116.869 24.076 116.932 24.235 117.058 24.367C117.184 24.499 117.436 24.631 117.814 24.763C118.198 24.895 118.768 25.057 119.524 25.249C120.298 25.447 120.916 25.675 121.378 25.933C121.846 26.185 122.182 26.488 122.386 26.842C122.596 27.196 122.701 27.625 122.701 28.129C122.701 29.107 122.344 29.875 121.63 30.433C120.922 30.991 119.941 31.27 118.687 31.27ZM129.091 31.27C128.107 31.27 127.243 31.057 126.499 30.631C125.755 30.205 125.173 29.614 124.753 28.858C124.339 28.102 124.132 27.232 124.132 26.248C124.132 25.186 124.336 24.265 124.744 23.485C125.152 22.699 125.719 22.09 126.445 21.658C127.171 21.226 128.011 21.01 128.965 21.01C129.973 21.01 130.828 21.247 131.53 21.721C132.238 22.189 132.763 22.852 133.105 23.71C133.447 24.568 133.576 25.579 133.492 26.743H131.341V25.951C131.335 24.895 131.149 24.124 130.783 23.638C130.417 23.152 129.841 22.909 129.055 22.909C128.167 22.909 127.507 23.185 127.075 23.737C126.643 24.283 126.427 25.084 126.427 26.14C126.427 27.124 126.643 27.886 127.075 28.426C127.507 28.966 128.137 29.236 128.965 29.236C129.499 29.236 129.958 29.119 130.342 28.885C130.732 28.645 131.032 28.3 131.242 27.85L133.384 28.498C133.012 29.374 132.436 30.055 131.656 30.541C130.882 31.027 130.027 31.27 129.091 31.27ZM125.743 26.743V25.105H132.43V26.743H125.743ZM139.253 31.27C138.053 31.27 137.078 31 136.328 30.46C135.578 29.92 135.122 29.161 134.96 28.183L137.174 27.841C137.288 28.321 137.54 28.699 137.93 28.975C138.32 29.251 138.812 29.389 139.406 29.389C139.928 29.389 140.33 29.287 140.612 29.083C140.9 28.873 141.044 28.588 141.044 28.228C141.044 28.006 140.99 27.829 140.882 27.697C140.78 27.559 140.552 27.427 140.198 27.301C139.844 27.175 139.301 27.016 138.569 26.824C137.753 26.608 137.105 26.377 136.625 26.131C136.145 25.879 135.8 25.582 135.59 25.24C135.38 24.898 135.275 24.484 135.275 23.998C135.275 23.392 135.434 22.864 135.752 22.414C136.07 21.964 136.514 21.619 137.084 21.379C137.654 21.133 138.326 21.01 139.1 21.01C139.856 21.01 140.525 21.127 141.107 21.361C141.695 21.595 142.169 21.928 142.529 22.36C142.889 22.792 143.111 23.299 143.195 23.881L140.981 24.277C140.927 23.863 140.738 23.536 140.414 23.296C140.096 23.056 139.67 22.921 139.136 22.891C138.626 22.861 138.215 22.939 137.903 23.125C137.591 23.305 137.435 23.56 137.435 23.89C137.435 24.076 137.498 24.235 137.624 24.367C137.75 24.499 138.002 24.631 138.38 24.763C138.764 24.895 139.334 25.057 140.09 25.249C140.864 25.447 141.482 25.675 141.944 25.933C142.412 26.185 142.748 26.488 142.952 26.842C143.162 27.196 143.267 27.625 143.267 28.129C143.267 29.107 142.91 29.875 142.196 30.433C141.488 30.991 140.507 31.27 139.253 31.27Z" fill="#369FFF"/>
<defs>
<clipPath id="clip0_62_2918">
<rect width="24" height="24" fill="white" transform="translate(16 12.5)"/>
</clipPath>
</defs>
</svg>
