<svg width="242" height="49" viewBox="0 0 242 49" fill="none" xmlns="http://www.w3.org/2000/svg">
<path d="M22.5332 25.033H33.4666V27.0863H34.5332V23.9663H28.5332V21.833H27.4666V23.9663H21.4666V27.0863H22.5332V25.033Z" fill="#369FFF"/>
<path d="M25.3333 27.8335H18.6666C18.313 27.8335 17.9738 27.974 17.7238 28.224C17.4737 28.4741 17.3333 28.8132 17.3333 29.1668V33.1668C17.3333 33.5205 17.4737 33.8596 17.7238 34.1096C17.9738 34.3597 18.313 34.5002 18.6666 34.5002H25.3333C25.6869 34.5002 26.026 34.3597 26.2761 34.1096C26.5261 33.8596 26.6666 33.5205 26.6666 33.1668V29.1668C26.6666 28.8132 26.5261 28.4741 26.2761 28.224C26.026 27.974 25.6869 27.8335 25.3333 27.8335ZM18.6666 33.1668V29.1668H25.3333V33.1668H18.6666Z" fill="#369FFF"/>
<path d="M37.3333 27.8335H30.6666C30.313 27.8335 29.9738 27.974 29.7238 28.224C29.4737 28.4741 29.3333 28.8132 29.3333 29.1668V33.1668C29.3333 33.5205 29.4737 33.8596 29.7238 34.1096C29.9738 34.3597 30.313 34.5002 30.6666 34.5002H37.3333C37.6869 34.5002 38.026 34.3597 38.2761 34.1096C38.5261 33.8596 38.6666 33.5205 38.6666 33.1668V29.1668C38.6666 28.8132 38.5261 28.4741 38.2761 28.224C38.026 27.974 37.6869 27.8335 37.3333 27.8335ZM30.6666 33.1668V29.1668H37.3333V33.1668H30.6666Z" fill="#369FFF"/>
<path d="M24.6666 21.1667H31.3333C31.6869 21.1667 32.026 21.0262 32.2761 20.7761C32.5261 20.5261 32.6666 20.187 32.6666 19.8333V15.8333C32.6666 15.4797 32.5261 15.1406 32.2761 14.8905C32.026 14.6405 31.6869 14.5 31.3333 14.5H24.6666C24.313 14.5 23.9738 14.6405 23.7238 14.8905C23.4737 15.1406 23.3333 15.4797 23.3333 15.8333V19.8333C23.3333 20.187 23.4737 20.5261 23.7238 20.7761C23.9738 21.0262 24.313 21.1667 24.6666 21.1667ZM24.6666 15.8333H31.3333V19.8333H24.6666V15.8333Z" fill="#369FFF"/>
<path d="M67.403 31.27L63.704 27.589L65.063 26.23L68.744 29.911L67.403 31.27ZM62.741 31.27C61.445 31.27 60.335 30.988 59.411 30.424C58.487 29.854 57.776 29.062 57.278 28.048C56.786 27.034 56.54 25.858 56.54 24.52C56.54 23.182 56.786 22.006 57.278 20.992C57.776 19.978 58.487 19.189 59.411 18.625C60.335 18.055 61.445 17.77 62.741 17.77C64.037 17.77 65.147 18.055 66.071 18.625C67.001 19.189 67.712 19.978 68.204 20.992C68.702 22.006 68.951 23.182 68.951 24.52C68.951 25.858 68.702 27.034 68.204 28.048C67.712 29.062 67.001 29.854 66.071 30.424C65.147 30.988 64.037 31.27 62.741 31.27ZM62.741 29.227C63.611 29.233 64.334 29.041 64.91 28.651C65.492 28.261 65.927 27.712 66.215 27.004C66.509 26.296 66.656 25.468 66.656 24.52C66.656 23.572 66.509 22.75 66.215 22.054C65.927 21.352 65.492 20.806 64.91 20.416C64.334 20.026 63.611 19.825 62.741 19.813C61.871 19.807 61.148 19.999 60.572 20.389C59.996 20.779 59.561 21.328 59.267 22.036C58.979 22.744 58.835 23.572 58.835 24.52C58.835 25.468 58.979 26.293 59.267 26.995C59.555 27.691 59.987 28.234 60.563 28.624C61.145 29.014 61.871 29.215 62.741 29.227ZM74.3874 31.279C73.6674 31.279 73.0734 31.159 72.6054 30.919C72.1374 30.679 71.7654 30.373 71.4894 30.001C71.2134 29.629 71.0094 29.233 70.8774 28.813C70.7454 28.393 70.6584 27.997 70.6164 27.625C70.5804 27.247 70.5624 26.941 70.5624 26.707V21.28H72.7584V25.96C72.7584 26.26 72.7794 26.599 72.8214 26.977C72.8634 27.349 72.9594 27.709 73.1094 28.057C73.2654 28.399 73.4934 28.681 73.7934 28.903C74.0994 29.125 74.5104 29.236 75.0264 29.236C75.3024 29.236 75.5754 29.191 75.8454 29.101C76.1154 29.011 76.3584 28.858 76.5744 28.642C76.7964 28.42 76.9734 28.117 77.1054 27.733C77.2374 27.349 77.3034 26.863 77.3034 26.275L78.5904 26.824C78.5904 27.652 78.4284 28.402 78.1044 29.074C77.7864 29.746 77.3154 30.283 76.6914 30.685C76.0674 31.081 75.2994 31.279 74.3874 31.279ZM77.5644 31V27.985H77.3034V21.28H79.4814V31H77.5644ZM86.429 31.27C85.445 31.27 84.581 31.057 83.837 30.631C83.093 30.205 82.511 29.614 82.091 28.858C81.677 28.102 81.47 27.232 81.47 26.248C81.47 25.186 81.674 24.265 82.082 23.485C82.49 22.699 83.057 22.09 83.783 21.658C84.509 21.226 85.349 21.01 86.303 21.01C87.311 21.01 88.166 21.247 88.868 21.721C89.576 22.189 90.101 22.852 90.443 23.71C90.785 24.568 90.914 25.579 90.83 26.743H88.679V25.951C88.673 24.895 88.487 24.124 88.121 23.638C87.755 23.152 87.179 22.909 86.393 22.909C85.505 22.909 84.845 23.185 84.413 23.737C83.981 24.283 83.765 25.084 83.765 26.14C83.765 27.124 83.981 27.886 84.413 28.426C84.845 28.966 85.475 29.236 86.303 29.236C86.837 29.236 87.296 29.119 87.68 28.885C88.07 28.645 88.37 28.3 88.58 27.85L90.722 28.498C90.35 29.374 89.774 30.055 88.994 30.541C88.22 31.027 87.365 31.27 86.429 31.27ZM83.081 26.743V25.105H89.768V26.743H83.081ZM96.4831 31.279C95.7631 31.279 95.1691 31.159 94.7011 30.919C94.2331 30.679 93.8611 30.373 93.5851 30.001C93.3091 29.629 93.1051 29.233 92.9731 28.813C92.8411 28.393 92.7541 27.997 92.7121 27.625C92.6761 27.247 92.6581 26.941 92.6581 26.707V21.28H94.8541V25.96C94.8541 26.26 94.8751 26.599 94.9171 26.977C94.9591 27.349 95.0551 27.709 95.2051 28.057C95.3611 28.399 95.5891 28.681 95.8891 28.903C96.1951 29.125 96.6061 29.236 97.1221 29.236C97.3981 29.236 97.6711 29.191 97.9411 29.101C98.2111 29.011 98.4541 28.858 98.6701 28.642C98.8921 28.42 99.0691 28.117 99.2011 27.733C99.3331 27.349 99.3991 26.863 99.3991 26.275L100.686 26.824C100.686 27.652 100.524 28.402 100.2 29.074C99.8821 29.746 99.4111 30.283 98.7871 30.685C98.1631 31.081 97.3951 31.279 96.4831 31.279ZM99.6601 31V27.985H99.3991V21.28H101.577V31H99.6601ZM108.525 31.27C107.541 31.27 106.677 31.057 105.933 30.631C105.189 30.205 104.607 29.614 104.187 28.858C103.773 28.102 103.566 27.232 103.566 26.248C103.566 25.186 103.77 24.265 104.178 23.485C104.586 22.699 105.153 22.09 105.879 21.658C106.605 21.226 107.445 21.01 108.399 21.01C109.407 21.01 110.262 21.247 110.964 21.721C111.672 22.189 112.197 22.852 112.539 23.71C112.881 24.568 113.01 25.579 112.926 26.743H110.775V25.951C110.769 24.895 110.583 24.124 110.217 23.638C109.851 23.152 109.275 22.909 108.489 22.909C107.601 22.909 106.941 23.185 106.509 23.737C106.077 24.283 105.861 25.084 105.861 26.14C105.861 27.124 106.077 27.886 106.509 28.426C106.941 28.966 107.571 29.236 108.399 29.236C108.933 29.236 109.392 29.119 109.776 28.885C110.166 28.645 110.466 28.3 110.676 27.85L112.818 28.498C112.446 29.374 111.87 30.055 111.09 30.541C110.316 31.027 109.461 31.27 108.525 31.27ZM105.177 26.743V25.105H111.864V26.743H105.177ZM118.687 31.27C117.487 31.27 116.512 31 115.762 30.46C115.012 29.92 114.556 29.161 114.394 28.183L116.608 27.841C116.722 28.321 116.974 28.699 117.364 28.975C117.754 29.251 118.246 29.389 118.84 29.389C119.362 29.389 119.764 29.287 120.046 29.083C120.334 28.873 120.478 28.588 120.478 28.228C120.478 28.006 120.424 27.829 120.316 27.697C120.214 27.559 119.986 27.427 119.632 27.301C119.278 27.175 118.735 27.016 118.003 26.824C117.187 26.608 116.539 26.377 116.059 26.131C115.579 25.879 115.234 25.582 115.024 25.24C114.814 24.898 114.709 24.484 114.709 23.998C114.709 23.392 114.868 22.864 115.186 22.414C115.504 21.964 115.948 21.619 116.518 21.379C117.088 21.133 117.76 21.01 118.534 21.01C119.29 21.01 119.959 21.127 120.541 21.361C121.129 21.595 121.603 21.928 121.963 22.36C122.323 22.792 122.545 23.299 122.629 23.881L120.415 24.277C120.361 23.863 120.172 23.536 119.848 23.296C119.53 23.056 119.104 22.921 118.57 22.891C118.06 22.861 117.649 22.939 117.337 23.125C117.025 23.305 116.869 23.56 116.869 23.89C116.869 24.076 116.932 24.235 117.058 24.367C117.184 24.499 117.436 24.631 117.814 24.763C118.198 24.895 118.768 25.057 119.524 25.249C120.298 25.447 120.916 25.675 121.378 25.933C121.846 26.185 122.182 26.488 122.386 26.842C122.596 27.196 122.701 27.625 122.701 28.129C122.701 29.107 122.344 29.875 121.63 30.433C120.922 30.991 119.941 31.27 118.687 31.27Z" fill="#369FFF"/>
</svg>
