<svg width="242" height="49" viewBox="0 0 242 49" fill="none" xmlns="http://www.w3.org/2000/svg">
<path d="M19.1501 15.3956V17.4998C19.2018 17.4943 19.2537 17.4916 19.3056 17.4915H19.7502V15.3956C19.7506 15.2302 19.8848 15.0963 20.0502 15.0962H21.5501C21.7157 15.0964 21.85 14.9624 21.8501 14.7968V13.8986H25.3V14.7968C25.3001 14.9624 25.4344 15.0964 25.6 15.0962H35.9501C36.1155 15.0963 36.2497 15.2302 36.2501 15.3956V17.4915H36.6946C36.7466 17.4916 36.7984 17.4943 36.8501 17.4998V15.3956C36.8496 15.1572 36.7546 14.9288 36.5859 14.7604C36.4171 14.5921 36.1885 14.4974 35.9501 14.4974H25.9003V13.8986C25.9085 13.7438 25.8532 13.5922 25.747 13.4791C25.6408 13.3661 25.4929 13.3013 25.3378 13.2998H21.8129C21.6578 13.3013 21.5101 13.3661 21.4039 13.4791C21.2977 13.5922 21.2422 13.7438 21.2504 13.8986V14.4974H20.0504C19.812 14.4974 19.5834 14.5921 19.4146 14.7604C19.2459 14.9288 19.1509 15.1572 19.1504 15.3956H19.1501Z" fill="#369FFF"/>
<path d="M36.5605 18.0998L36.693 18.0996C37.2413 18.0988 37.7627 18.3345 38.1244 18.745L38.1247 18.7453C38.4855 19.155 38.6527 19.6994 38.585 20.2404L37.5322 29.2254L37.5307 29.238L37.5307 29.238C37.471 29.6966 37.2468 30.1181 36.8997 30.4238L36.8994 30.4241C36.5522 30.7297 36.1055 30.8989 35.6426 30.8998L35.6408 30.8998L20.3593 30.8998H20.3581C19.8968 30.8992 19.4509 30.7316 19.1034 30.4268L36.5605 18.0998ZM36.5605 18.0998H19.3061H19.3056V19.0998L36.5605 18.0998ZM18.4692 29.2372L18.4682 29.2292L17.4144 20.2348L18.4692 29.2372ZM18.4692 29.2372L18.4703 29.2452M18.4692 29.2372L18.4703 29.2452M18.4703 29.2452C18.5313 29.7026 18.7562 30.1223 19.1031 30.4266L18.4703 29.2452Z" stroke="#369FFF" stroke-width="2"/>
<path d="M34.3 18.5002V17.4502C34.2997 17.2513 34.2206 17.0607 34.0801 16.9201C33.9394 16.7795 33.7487 16.7005 33.55 16.7002H24.25C24.0511 16.7005 23.8606 16.7795 23.7199 16.9201C23.5793 17.0607 23.5003 17.2513 23.5 17.4502V18.5002H24.1V17.4502C24.1001 17.3674 24.1672 17.3003 24.25 17.3002H33.55C33.6327 17.3003 33.6998 17.3674 33.7 17.4502V18.5002H34.3Z" fill="#369FFF"/>
<path d="M57.26 31V18.04H62.615C62.741 18.04 62.903 18.046 63.101 18.058C63.299 18.064 63.482 18.082 63.65 18.112C64.4 18.226 65.018 18.475 65.504 18.859C65.996 19.243 66.359 19.729 66.593 20.317C66.833 20.899 66.953 21.547 66.953 22.261C66.953 23.317 66.686 24.226 66.152 24.988C65.618 25.744 64.799 26.212 63.695 26.392L62.768 26.473H59.429V31H57.26ZM64.703 31L62.147 25.726L64.352 25.24L67.16 31H64.703ZM59.429 24.448H62.525C62.645 24.448 62.78 24.442 62.93 24.43C63.08 24.418 63.218 24.394 63.344 24.358C63.704 24.268 63.986 24.109 64.19 23.881C64.4 23.653 64.547 23.395 64.631 23.107C64.721 22.819 64.766 22.537 64.766 22.261C64.766 21.985 64.721 21.703 64.631 21.415C64.547 21.121 64.4 20.86 64.19 20.632C63.986 20.404 63.704 20.245 63.344 20.155C63.218 20.119 63.08 20.098 62.93 20.092C62.78 20.08 62.645 20.074 62.525 20.074H59.429V24.448ZM73.5618 31.27C72.5778 31.27 71.7138 31.057 70.9698 30.631C70.2258 30.205 69.6438 29.614 69.2238 28.858C68.8098 28.102 68.6028 27.232 68.6028 26.248C68.6028 25.186 68.8068 24.265 69.2148 23.485C69.6228 22.699 70.1898 22.09 70.9158 21.658C71.6418 21.226 72.4818 21.01 73.4358 21.01C74.4438 21.01 75.2988 21.247 76.0008 21.721C76.7088 22.189 77.2338 22.852 77.5758 23.71C77.9178 24.568 78.0468 25.579 77.9628 26.743H75.8118V25.951C75.8058 24.895 75.6198 24.124 75.2538 23.638C74.8878 23.152 74.3118 22.909 73.5258 22.909C72.6378 22.909 71.9778 23.185 71.5458 23.737C71.1138 24.283 70.8978 25.084 70.8978 26.14C70.8978 27.124 71.1138 27.886 71.5458 28.426C71.9778 28.966 72.6078 29.236 73.4358 29.236C73.9698 29.236 74.4288 29.119 74.8128 28.885C75.2028 28.645 75.5028 28.3 75.7128 27.85L77.8548 28.498C77.4828 29.374 76.9068 30.055 76.1268 30.541C75.3528 31.027 74.4978 31.27 73.5618 31.27ZM70.2138 26.743V25.105H76.9008V26.743H70.2138ZM83.7239 31.27C82.5239 31.27 81.5489 31 80.7989 30.46C80.0489 29.92 79.5929 29.161 79.4309 28.183L81.6449 27.841C81.7589 28.321 82.0109 28.699 82.4009 28.975C82.7909 29.251 83.2829 29.389 83.8769 29.389C84.3989 29.389 84.8009 29.287 85.0829 29.083C85.3709 28.873 85.5149 28.588 85.5149 28.228C85.5149 28.006 85.4609 27.829 85.3529 27.697C85.2509 27.559 85.0229 27.427 84.6689 27.301C84.3149 27.175 83.7719 27.016 83.0399 26.824C82.2239 26.608 81.5759 26.377 81.0959 26.131C80.6159 25.879 80.2709 25.582 80.0609 25.24C79.8509 24.898 79.7459 24.484 79.7459 23.998C79.7459 23.392 79.9049 22.864 80.2229 22.414C80.5409 21.964 80.9849 21.619 81.5549 21.379C82.1249 21.133 82.7969 21.01 83.5709 21.01C84.3269 21.01 84.9959 21.127 85.5779 21.361C86.1659 21.595 86.6399 21.928 86.9999 22.36C87.3599 22.792 87.5819 23.299 87.6659 23.881L85.4519 24.277C85.3979 23.863 85.2089 23.536 84.8849 23.296C84.5669 23.056 84.1409 22.921 83.6069 22.891C83.0969 22.861 82.6859 22.939 82.3739 23.125C82.0619 23.305 81.9059 23.56 81.9059 23.89C81.9059 24.076 81.9689 24.235 82.0949 24.367C82.2209 24.499 82.4729 24.631 82.8509 24.763C83.2349 24.895 83.8049 25.057 84.5609 25.249C85.3349 25.447 85.9529 25.675 86.4149 25.933C86.8829 26.185 87.2189 26.488 87.4229 26.842C87.6329 27.196 87.7379 27.625 87.7379 28.129C87.7379 29.107 87.3809 29.875 86.6669 30.433C85.9589 30.991 84.9779 31.27 83.7239 31.27ZM94.3802 31.27C93.4322 31.27 92.6372 31.045 91.9952 30.595C91.3532 30.145 90.8702 29.533 90.5462 28.759C90.2222 27.979 90.0602 27.106 90.0602 26.14C90.0602 25.162 90.2222 24.286 90.5462 23.512C90.8702 22.738 91.3442 22.129 91.9682 21.685C92.5982 21.235 93.3752 21.01 94.2992 21.01C95.2172 21.01 96.0122 21.235 96.6842 21.685C97.3622 22.129 97.8872 22.738 98.2592 23.512C98.6312 24.28 98.8172 25.156 98.8172 26.14C98.8172 27.112 98.6342 27.985 98.2682 28.759C97.9022 29.533 97.3862 30.145 96.7202 30.595C96.0542 31.045 95.2742 31.27 94.3802 31.27ZM89.6912 35.32V21.28H91.6082V28.102H91.8782V35.32H89.6912ZM94.0472 29.326C94.6112 29.326 95.0762 29.185 95.4422 28.903C95.8082 28.621 96.0782 28.24 96.2522 27.76C96.4322 27.274 96.5222 26.734 96.5222 26.14C96.5222 25.552 96.4322 25.018 96.2522 24.538C96.0722 24.052 95.7932 23.668 95.4152 23.386C95.0372 23.098 94.5572 22.954 93.9752 22.954C93.4232 22.954 92.9732 23.089 92.6252 23.359C92.2772 23.623 92.0192 23.995 91.8512 24.475C91.6892 24.949 91.6082 25.504 91.6082 26.14C91.6082 26.77 91.6892 27.325 91.8512 27.805C92.0192 28.285 92.2802 28.66 92.6342 28.93C92.9942 29.194 93.4652 29.326 94.0472 29.326ZM105.094 31.27C104.122 31.27 103.273 31.051 102.547 30.613C101.821 30.175 101.257 29.572 100.855 28.804C100.459 28.03 100.261 27.142 100.261 26.14C100.261 25.12 100.465 24.226 100.873 23.458C101.281 22.69 101.848 22.09 102.574 21.658C103.3 21.226 104.14 21.01 105.094 21.01C106.072 21.01 106.924 21.229 107.65 21.667C108.376 22.105 108.94 22.711 109.342 23.485C109.744 24.253 109.945 25.138 109.945 26.14C109.945 27.148 109.741 28.039 109.333 28.813C108.931 29.581 108.367 30.184 107.641 30.622C106.915 31.054 106.066 31.27 105.094 31.27ZM105.094 29.236C105.958 29.236 106.6 28.948 107.02 28.372C107.44 27.796 107.65 27.052 107.65 26.14C107.65 25.198 107.437 24.448 107.011 23.89C106.585 23.326 105.946 23.044 105.094 23.044C104.512 23.044 104.032 23.176 103.654 23.44C103.282 23.698 103.006 24.061 102.826 24.529C102.646 24.991 102.556 25.528 102.556 26.14C102.556 27.082 102.769 27.835 103.195 28.399C103.627 28.957 104.26 29.236 105.094 29.236ZM115.452 31.27C114.252 31.27 113.277 31 112.527 30.46C111.777 29.92 111.321 29.161 111.159 28.183L113.373 27.841C113.487 28.321 113.739 28.699 114.129 28.975C114.519 29.251 115.011 29.389 115.605 29.389C116.127 29.389 116.529 29.287 116.811 29.083C117.099 28.873 117.243 28.588 117.243 28.228C117.243 28.006 117.189 27.829 117.081 27.697C116.979 27.559 116.751 27.427 116.397 27.301C116.043 27.175 115.5 27.016 114.768 26.824C113.952 26.608 113.304 26.377 112.824 26.131C112.344 25.879 111.999 25.582 111.789 25.24C111.579 24.898 111.474 24.484 111.474 23.998C111.474 23.392 111.633 22.864 111.951 22.414C112.269 21.964 112.713 21.619 113.283 21.379C113.853 21.133 114.525 21.01 115.299 21.01C116.055 21.01 116.724 21.127 117.306 21.361C117.894 21.595 118.368 21.928 118.728 22.36C119.088 22.792 119.31 23.299 119.394 23.881L117.18 24.277C117.126 23.863 116.937 23.536 116.613 23.296C116.295 23.056 115.869 22.921 115.335 22.891C114.825 22.861 114.414 22.939 114.102 23.125C113.79 23.305 113.634 23.56 113.634 23.89C113.634 24.076 113.697 24.235 113.823 24.367C113.949 24.499 114.201 24.631 114.579 24.763C114.963 24.895 115.533 25.057 116.289 25.249C117.063 25.447 117.681 25.675 118.143 25.933C118.611 26.185 118.947 26.488 119.151 26.842C119.361 27.196 119.466 27.625 119.466 28.129C119.466 29.107 119.109 29.875 118.395 30.433C117.687 30.991 116.706 31.27 115.452 31.27ZM121.618 19.804V17.815H123.787V19.804H121.618ZM121.618 31V21.28H123.787V31H121.618ZM132.18 31C131.538 31.12 130.908 31.171 130.29 31.153C129.678 31.141 129.129 31.03 128.643 30.82C128.157 30.604 127.788 30.265 127.536 29.803C127.314 29.383 127.197 28.954 127.185 28.516C127.173 28.078 127.167 27.583 127.167 27.031V18.58H129.327V26.905C129.327 27.295 129.33 27.637 129.336 27.931C129.348 28.225 129.411 28.465 129.525 28.651C129.741 29.011 130.086 29.212 130.56 29.254C131.034 29.296 131.574 29.272 132.18 29.182V31ZM125.403 22.981V21.28H132.18V22.981H125.403ZM138.071 31.27C137.099 31.27 136.25 31.051 135.524 30.613C134.798 30.175 134.234 29.572 133.832 28.804C133.436 28.03 133.238 27.142 133.238 26.14C133.238 25.12 133.442 24.226 133.85 23.458C134.258 22.69 134.825 22.09 135.551 21.658C136.277 21.226 137.117 21.01 138.071 21.01C139.049 21.01 139.901 21.229 140.627 21.667C141.353 22.105 141.917 22.711 142.319 23.485C142.721 24.253 142.922 25.138 142.922 26.14C142.922 27.148 142.718 28.039 142.31 28.813C141.908 29.581 141.344 30.184 140.618 30.622C139.892 31.054 139.043 31.27 138.071 31.27ZM138.071 29.236C138.935 29.236 139.577 28.948 139.997 28.372C140.417 27.796 140.627 27.052 140.627 26.14C140.627 25.198 140.414 24.448 139.988 23.89C139.562 23.326 138.923 23.044 138.071 23.044C137.489 23.044 137.009 23.176 136.631 23.44C136.259 23.698 135.983 24.061 135.803 24.529C135.623 24.991 135.533 25.528 135.533 26.14C135.533 27.082 135.746 27.835 136.172 28.399C136.604 28.957 137.237 29.236 138.071 29.236ZM144.905 31V21.28H146.822V23.647L146.588 23.341C146.708 23.017 146.867 22.723 147.065 22.459C147.269 22.189 147.512 21.967 147.794 21.793C148.034 21.631 148.298 21.505 148.586 21.415C148.88 21.319 149.18 21.262 149.486 21.244C149.792 21.22 150.089 21.232 150.377 21.28V23.305C150.089 23.221 149.756 23.194 149.378 23.224C149.006 23.254 148.67 23.359 148.37 23.539C148.07 23.701 147.824 23.908 147.632 24.16C147.446 24.412 147.308 24.7 147.218 25.024C147.128 25.342 147.083 25.687 147.083 26.059V31H144.905ZM152.274 19.804V17.815H154.443V19.804H152.274ZM152.274 31V21.28H154.443V31H152.274ZM161.558 31.27C160.574 31.27 159.71 31.057 158.966 30.631C158.222 30.205 157.64 29.614 157.22 28.858C156.806 28.102 156.599 27.232 156.599 26.248C156.599 25.186 156.803 24.265 157.211 23.485C157.619 22.699 158.186 22.09 158.912 21.658C159.638 21.226 160.478 21.01 161.432 21.01C162.44 21.01 163.295 21.247 163.997 21.721C164.705 22.189 165.23 22.852 165.572 23.71C165.914 24.568 166.043 25.579 165.959 26.743H163.808V25.951C163.802 24.895 163.616 24.124 163.25 23.638C162.884 23.152 162.308 22.909 161.522 22.909C160.634 22.909 159.974 23.185 159.542 23.737C159.11 24.283 158.894 25.084 158.894 26.14C158.894 27.124 159.11 27.886 159.542 28.426C159.974 28.966 160.604 29.236 161.432 29.236C161.966 29.236 162.425 29.119 162.809 28.885C163.199 28.645 163.499 28.3 163.709 27.85L165.851 28.498C165.479 29.374 164.903 30.055 164.123 30.541C163.349 31.027 162.494 31.27 161.558 31.27ZM158.21 26.743V25.105H164.897V26.743H158.21ZM171.72 31.27C170.52 31.27 169.545 31 168.795 30.46C168.045 29.92 167.589 29.161 167.427 28.183L169.641 27.841C169.755 28.321 170.007 28.699 170.397 28.975C170.787 29.251 171.279 29.389 171.873 29.389C172.395 29.389 172.797 29.287 173.079 29.083C173.367 28.873 173.511 28.588 173.511 28.228C173.511 28.006 173.457 27.829 173.349 27.697C173.247 27.559 173.019 27.427 172.665 27.301C172.311 27.175 171.768 27.016 171.036 26.824C170.22 26.608 169.572 26.377 169.092 26.131C168.612 25.879 168.267 25.582 168.057 25.24C167.847 24.898 167.742 24.484 167.742 23.998C167.742 23.392 167.901 22.864 168.219 22.414C168.537 21.964 168.981 21.619 169.551 21.379C170.121 21.133 170.793 21.01 171.567 21.01C172.323 21.01 172.992 21.127 173.574 21.361C174.162 21.595 174.636 21.928 174.996 22.36C175.356 22.792 175.578 23.299 175.662 23.881L173.448 24.277C173.394 23.863 173.205 23.536 172.881 23.296C172.563 23.056 172.137 22.921 171.603 22.891C171.093 22.861 170.682 22.939 170.37 23.125C170.058 23.305 169.902 23.56 169.902 23.89C169.902 24.076 169.965 24.235 170.091 24.367C170.217 24.499 170.469 24.631 170.847 24.763C171.231 24.895 171.801 25.057 172.557 25.249C173.331 25.447 173.949 25.675 174.411 25.933C174.879 26.185 175.215 26.488 175.419 26.842C175.629 27.196 175.734 27.625 175.734 28.129C175.734 29.107 175.377 29.875 174.663 30.433C173.955 30.991 172.974 31.27 171.72 31.27Z" fill="#369FFF"/>
</svg>
