<svg width="242" height="49" viewBox="0 0 242 49" fill="none" xmlns="http://www.w3.org/2000/svg">
<rect width="242" height="49" fill="white"/>
<path d="M32.9734 23.1546L30.5453 26.5226L29.3078 24.8093C29.2375 24.7109 29.125 24.6546 29.0055 24.6546H27.7188C27.5664 24.6546 27.4773 24.828 27.5664 24.9523L30.2406 28.6601C30.2751 28.708 30.3206 28.747 30.3731 28.7739C30.4257 28.8008 30.4839 28.8149 30.543 28.8149C30.602 28.8149 30.6602 28.8008 30.7128 28.7739C30.7654 28.747 30.8108 28.708 30.8453 28.6601L34.7125 23.2999C34.8016 23.1757 34.7125 23.0023 34.5602 23.0023H33.2734C33.1563 22.9999 33.0438 23.0585 32.9734 23.1546ZM25.75 24.1249H21.4375C21.3344 24.1249 21.25 24.2093 21.25 24.3124V25.4374C21.25 25.5405 21.3344 25.6249 21.4375 25.6249H25.75C25.8531 25.6249 25.9375 25.5405 25.9375 25.4374V24.3124C25.9375 24.2093 25.8531 24.1249 25.75 24.1249Z" fill="#369FFF"/>
<path d="M37.75 17.75H34V16.4375C34 16.3344 33.9156 16.25 33.8125 16.25H32.5C32.3969 16.25 32.3125 16.3344 32.3125 16.4375V17.75H28.8438V16.4375C28.8438 16.3344 28.7594 16.25 28.6562 16.25H27.3438C27.2406 16.25 27.1562 16.3344 27.1562 16.4375V17.75H23.6875V16.4375C23.6875 16.3344 23.6031 16.25 23.5 16.25H22.1875C22.0844 16.25 22 16.3344 22 16.4375V17.75H18.25C17.8352 17.75 17.5 18.0852 17.5 18.5V32C17.5 32.4148 17.8352 32.75 18.25 32.75H37.75C38.1648 32.75 38.5 32.4148 38.5 32V18.5C38.5 18.0852 38.1648 17.75 37.75 17.75ZM36.8125 31.0625H19.1875V19.4375H22V20.75C22 20.8531 22.0844 20.9375 22.1875 20.9375H23.5C23.6031 20.9375 23.6875 20.8531 23.6875 20.75V19.4375H27.1562V20.75C27.1562 20.8531 27.2406 20.9375 27.3438 20.9375H28.6562C28.7594 20.9375 28.8438 20.8531 28.8438 20.75V19.4375H32.3125V20.75C32.3125 20.8531 32.3969 20.9375 32.5 20.9375H33.8125C33.9156 20.9375 34 20.8531 34 20.75V19.4375H36.8125V31.0625Z" fill="#369FFF"/>
<path d="M25.75 27.3125H21.4375C21.3344 27.3125 21.25 27.3969 21.25 27.5V28.625C21.25 28.7281 21.3344 28.8125 21.4375 28.8125H25.75C25.8531 28.8125 25.9375 28.7281 25.9375 28.625V27.5C25.9375 27.3969 25.8531 27.3125 25.75 27.3125Z" fill="#369FFF"/>
<path d="M62.057 31.27C61.109 31.27 60.254 31.105 59.492 30.775C58.736 30.445 58.112 29.974 57.62 29.362C57.134 28.744 56.825 28.012 56.693 27.166L58.943 26.824C59.135 27.592 59.528 28.186 60.122 28.606C60.722 29.026 61.412 29.236 62.192 29.236C62.654 29.236 63.089 29.164 63.497 29.02C63.905 28.876 64.235 28.666 64.487 28.39C64.745 28.114 64.874 27.775 64.874 27.373C64.874 27.193 64.844 27.028 64.784 26.878C64.724 26.722 64.634 26.584 64.514 26.464C64.4 26.344 64.25 26.236 64.064 26.14C63.884 26.038 63.674 25.951 63.434 25.879L60.086 24.889C59.798 24.805 59.486 24.694 59.15 24.556C58.82 24.412 58.505 24.217 58.205 23.971C57.911 23.719 57.668 23.401 57.476 23.017C57.29 22.627 57.197 22.147 57.197 21.577C57.197 20.743 57.407 20.044 57.827 19.48C58.253 18.91 58.823 18.484 59.537 18.202C60.257 17.92 61.055 17.782 61.931 17.788C62.819 17.794 63.611 17.947 64.307 18.247C65.003 18.541 65.585 18.97 66.053 19.534C66.521 20.098 66.851 20.779 67.043 21.577L64.712 21.982C64.616 21.526 64.43 21.139 64.154 20.821C63.884 20.497 63.551 20.251 63.155 20.083C62.765 19.915 62.348 19.825 61.904 19.813C61.472 19.807 61.07 19.873 60.698 20.011C60.332 20.143 60.035 20.335 59.807 20.587C59.585 20.839 59.474 21.133 59.474 21.469C59.474 21.787 59.57 22.048 59.762 22.252C59.954 22.45 60.191 22.609 60.473 22.729C60.761 22.843 61.052 22.939 61.346 23.017L63.668 23.665C63.986 23.749 64.343 23.863 64.739 24.007C65.135 24.151 65.516 24.352 65.882 24.61C66.248 24.868 66.548 25.207 66.782 25.627C67.022 26.047 67.142 26.581 67.142 27.229C67.142 27.901 67.001 28.492 66.719 29.002C66.443 29.506 66.068 29.926 65.594 30.262C65.12 30.598 64.577 30.85 63.965 31.018C63.359 31.186 62.723 31.27 62.057 31.27ZM73.3111 31.27C72.3091 31.27 71.4541 31.048 70.7461 30.604C70.0381 30.154 69.4951 29.542 69.1171 28.768C68.7451 27.994 68.5561 27.118 68.5501 26.14C68.5561 25.144 68.7511 24.262 69.1351 23.494C69.5251 22.72 70.0771 22.114 70.7911 21.676C71.5051 21.232 72.3541 21.01 73.3381 21.01C74.4421 21.01 75.3751 21.289 76.1371 21.847C76.9051 22.399 77.4061 23.155 77.6401 24.115L75.4801 24.7C75.3121 24.178 75.0331 23.773 74.6431 23.485C74.2531 23.191 73.8091 23.044 73.3111 23.044C72.7471 23.044 72.2821 23.179 71.9161 23.449C71.5501 23.713 71.2801 24.079 71.1061 24.547C70.9321 25.015 70.8451 25.546 70.8451 26.14C70.8451 27.064 71.0521 27.811 71.4661 28.381C71.8801 28.951 72.4951 29.236 73.3111 29.236C73.8871 29.236 74.3401 29.104 74.6701 28.84C75.0061 28.576 75.2581 28.195 75.4261 27.697L77.6401 28.192C77.3401 29.182 76.8151 29.944 76.0651 30.478C75.3151 31.006 74.3971 31.27 73.3111 31.27ZM86.1666 31V26.32C86.1666 26.014 86.1456 25.675 86.1036 25.303C86.0616 24.931 85.9626 24.574 85.8066 24.232C85.6566 23.884 85.4286 23.599 85.1226 23.377C84.8226 23.155 84.4146 23.044 83.8986 23.044C83.6226 23.044 83.3496 23.089 83.0796 23.179C82.8096 23.269 82.5636 23.425 82.3416 23.647C82.1256 23.863 81.9516 24.163 81.8196 24.547C81.6876 24.925 81.6216 25.411 81.6216 26.005L80.3346 25.456C80.3346 24.628 80.4936 23.878 80.8116 23.206C81.1356 22.534 81.6096 22 82.2336 21.604C82.8576 21.202 83.6256 21.001 84.5376 21.001C85.2576 21.001 85.8516 21.121 86.3196 21.361C86.7876 21.601 87.1596 21.907 87.4356 22.279C87.7116 22.651 87.9156 23.047 88.0476 23.467C88.1796 23.887 88.2636 24.286 88.2996 24.664C88.3416 25.036 88.3626 25.339 88.3626 25.573V31H86.1666ZM79.4256 31V18.04H81.3606V24.862H81.6216V31H79.4256ZM95.1302 31.27C94.1462 31.27 93.2822 31.057 92.5382 30.631C91.7942 30.205 91.2122 29.614 90.7922 28.858C90.3782 28.102 90.1712 27.232 90.1712 26.248C90.1712 25.186 90.3752 24.265 90.7832 23.485C91.1912 22.699 91.7582 22.09 92.4842 21.658C93.2102 21.226 94.0502 21.01 95.0042 21.01C96.0122 21.01 96.8672 21.247 97.5692 21.721C98.2772 22.189 98.8022 22.852 99.1442 23.71C99.4862 24.568 99.6152 25.579 99.5312 26.743H97.3802V25.951C97.3742 24.895 97.1882 24.124 96.8222 23.638C96.4562 23.152 95.8802 22.909 95.0942 22.909C94.2062 22.909 93.5462 23.185 93.1142 23.737C92.6822 24.283 92.4662 25.084 92.4662 26.14C92.4662 27.124 92.6822 27.886 93.1142 28.426C93.5462 28.966 94.1762 29.236 95.0042 29.236C95.5382 29.236 95.9972 29.119 96.3812 28.885C96.7712 28.645 97.0712 28.3 97.2812 27.85L99.4232 28.498C99.0512 29.374 98.4752 30.055 97.6952 30.541C96.9212 31.027 96.0662 31.27 95.1302 31.27ZM91.7822 26.743V25.105H98.4692V26.743H91.7822ZM105.436 31.27C104.542 31.27 103.762 31.045 103.096 30.595C102.43 30.145 101.914 29.533 101.548 28.759C101.182 27.985 100.999 27.112 100.999 26.14C100.999 25.156 101.182 24.28 101.548 23.512C101.92 22.738 102.445 22.129 103.123 21.685C103.801 21.235 104.599 21.01 105.517 21.01C106.441 21.01 107.215 21.235 107.839 21.685C108.469 22.129 108.946 22.738 109.27 23.512C109.594 24.286 109.756 25.162 109.756 26.14C109.756 27.106 109.594 27.979 109.27 28.759C108.946 29.533 108.463 30.145 107.821 30.595C107.179 31.045 106.384 31.27 105.436 31.27ZM105.769 29.326C106.351 29.326 106.819 29.194 107.173 28.93C107.533 28.66 107.794 28.285 107.956 27.805C108.124 27.325 108.208 26.77 108.208 26.14C108.208 25.504 108.124 24.949 107.956 24.475C107.794 23.995 107.539 23.623 107.191 23.359C106.843 23.089 106.393 22.954 105.841 22.954C105.259 22.954 104.779 23.098 104.401 23.386C104.023 23.668 103.744 24.052 103.564 24.538C103.384 25.018 103.294 25.552 103.294 26.14C103.294 26.734 103.381 27.274 103.555 27.76C103.735 28.24 104.008 28.621 104.374 28.903C104.74 29.185 105.205 29.326 105.769 29.326ZM108.208 31V24.178H107.938V18.04H110.125V31H108.208ZM116.294 31.279C115.574 31.279 114.98 31.159 114.512 30.919C114.044 30.679 113.672 30.373 113.396 30.001C113.12 29.629 112.916 29.233 112.784 28.813C112.652 28.393 112.565 27.997 112.523 27.625C112.487 27.247 112.469 26.941 112.469 26.707V21.28H114.665V25.96C114.665 26.26 114.686 26.599 114.728 26.977C114.77 27.349 114.866 27.709 115.016 28.057C115.172 28.399 115.4 28.681 115.7 28.903C116.006 29.125 116.417 29.236 116.933 29.236C117.209 29.236 117.482 29.191 117.752 29.101C118.022 29.011 118.265 28.858 118.481 28.642C118.703 28.42 118.88 28.117 119.012 27.733C119.144 27.349 119.21 26.863 119.21 26.275L120.497 26.824C120.497 27.652 120.335 28.402 120.011 29.074C119.693 29.746 119.222 30.283 118.598 30.685C117.974 31.081 117.206 31.279 116.294 31.279ZM119.471 31V27.985H119.21V21.28H121.388V31H119.471ZM124.096 31V17.77H126.265V31H124.096ZM133.38 31.27C132.396 31.27 131.532 31.057 130.788 30.631C130.044 30.205 129.462 29.614 129.042 28.858C128.628 28.102 128.421 27.232 128.421 26.248C128.421 25.186 128.625 24.265 129.033 23.485C129.441 22.699 130.008 22.09 130.734 21.658C131.46 21.226 132.3 21.01 133.254 21.01C134.262 21.01 135.117 21.247 135.819 21.721C136.527 22.189 137.052 22.852 137.394 23.71C137.736 24.568 137.865 25.579 137.781 26.743H135.63V25.951C135.624 24.895 135.438 24.124 135.072 23.638C134.706 23.152 134.13 22.909 133.344 22.909C132.456 22.909 131.796 23.185 131.364 23.737C130.932 24.283 130.716 25.084 130.716 26.14C130.716 27.124 130.932 27.886 131.364 28.426C131.796 28.966 132.426 29.236 133.254 29.236C133.788 29.236 134.247 29.119 134.631 28.885C135.021 28.645 135.321 28.3 135.531 27.85L137.673 28.498C137.301 29.374 136.725 30.055 135.945 30.541C135.171 31.027 134.316 31.27 133.38 31.27ZM130.032 26.743V25.105H136.719V26.743H130.032ZM143.542 31.27C142.342 31.27 141.367 31 140.617 30.46C139.867 29.92 139.411 29.161 139.249 28.183L141.463 27.841C141.577 28.321 141.829 28.699 142.219 28.975C142.609 29.251 143.101 29.389 143.695 29.389C144.217 29.389 144.619 29.287 144.901 29.083C145.189 28.873 145.333 28.588 145.333 28.228C145.333 28.006 145.279 27.829 145.171 27.697C145.069 27.559 144.841 27.427 144.487 27.301C144.133 27.175 143.59 27.016 142.858 26.824C142.042 26.608 141.394 26.377 140.914 26.131C140.434 25.879 140.089 25.582 139.879 25.24C139.669 24.898 139.564 24.484 139.564 23.998C139.564 23.392 139.723 22.864 140.041 22.414C140.359 21.964 140.803 21.619 141.373 21.379C141.943 21.133 142.615 21.01 143.389 21.01C144.145 21.01 144.814 21.127 145.396 21.361C145.984 21.595 146.458 21.928 146.818 22.36C147.178 22.792 147.4 23.299 147.484 23.881L145.27 24.277C145.216 23.863 145.027 23.536 144.703 23.296C144.385 23.056 143.959 22.921 143.425 22.891C142.915 22.861 142.504 22.939 142.192 23.125C141.88 23.305 141.724 23.56 141.724 23.89C141.724 24.076 141.787 24.235 141.913 24.367C142.039 24.499 142.291 24.631 142.669 24.763C143.053 24.895 143.623 25.057 144.379 25.249C145.153 25.447 145.771 25.675 146.233 25.933C146.701 26.185 147.037 26.488 147.241 26.842C147.451 27.196 147.556 27.625 147.556 28.129C147.556 29.107 147.199 29.875 146.485 30.433C145.777 30.991 144.796 31.27 143.542 31.27Z" fill="#369FFF"/>
</svg>
