<svg width="242" height="49" viewBox="0 0 242 49" fill="none" xmlns="http://www.w3.org/2000/svg">
<rect width="242" height="49" fill="white"/>
<path d="M35 26.4998C34.0074 26.4998 33.2 25.6923 33.2 24.6998C33.2 23.7072 34.0074 22.8998 35 22.8998C35.9925 22.8998 36.8 23.7072 36.8 24.6998C36.8 25.6923 35.9925 26.4998 35 26.4998ZM35 24.0998C34.6691 24.0998 34.4 24.369 34.4 24.6998C34.4 25.0306 34.6691 25.2998 35 25.2998C35.3308 25.2998 35.6 25.0306 35.6 24.6998C35.6 24.369 35.3308 24.0998 35 24.0998Z" fill="#369FFF"/>
<path d="M33.8 25.2999H32.6C32.2687 25.2999 32 25.0312 32 24.6999C32 24.3685 32.2687 24.0999 32.6 24.0999H33.8C34.1313 24.0999 34.4 24.3685 34.4 24.6999C34.4 25.0312 34.1313 25.2999 33.8 25.2999Z" fill="#369FFF"/>
<path d="M21.8 26.4998C20.8075 26.4998 20 25.6923 20 24.6998C20 23.7072 20.8075 22.8998 21.8 22.8998C22.7925 22.8998 23.6 23.7072 23.6 24.6998C23.6 25.6923 22.7925 26.4998 21.8 26.4998ZM21.8 24.0998C21.4692 24.0998 21.2 24.369 21.2 24.6998C21.2 25.0306 21.4692 25.2998 21.8 25.2998C22.1308 25.2998 22.4 25.0306 22.4 24.6998C22.4 24.369 22.1308 24.0998 21.8 24.0998Z" fill="#369FFF"/>
<path d="M24.1999 25.2999H22.9999C22.6686 25.2999 22.3999 25.0312 22.3999 24.6999C22.3999 24.3685 22.6686 24.0999 22.9999 24.0999H24.1999C24.5312 24.0999 24.7999 24.3685 24.7999 24.6999C24.7999 25.0312 24.5312 25.2999 24.1999 25.2999Z" fill="#369FFF"/>
<path d="M24.2001 31.8998C24.1108 31.8998 24.0212 31.8799 23.9379 31.8394C23.7314 31.739 23.6001 31.5295 23.6001 31.2998V18.0998C23.6001 17.8702 23.7313 17.6607 23.9379 17.5603C24.1436 17.4603 24.3896 17.4858 24.5707 17.6283L32.9707 24.2283C33.1155 24.3419 33.2001 24.5158 33.2001 24.6999C33.2001 24.8839 33.1155 25.0578 32.9707 25.1716L24.5707 31.7715C24.4629 31.8562 24.3319 31.8998 24.2001 31.8998L24.2001 31.8998ZM24.8001 19.3345V30.0652L31.6288 24.6998L24.8001 19.3345Z" fill="#369FFF"/>
<path d="M60.374 31V20.074H56.18V18.04H66.737V20.074H62.543V31H60.374ZM67.2795 31V21.28H69.1965V23.647L68.9625 23.341C69.0825 23.017 69.2415 22.723 69.4395 22.459C69.6435 22.189 69.8865 21.967 70.1685 21.793C70.4085 21.631 70.6725 21.505 70.9605 21.415C71.2545 21.319 71.5545 21.262 71.8605 21.244C72.1665 21.22 72.4635 21.232 72.7515 21.28V23.305C72.4635 23.221 72.1305 23.194 71.7525 23.224C71.3805 23.254 71.0445 23.359 70.7445 23.539C70.4445 23.701 70.1985 23.908 70.0065 24.16C69.8205 24.412 69.6825 24.7 69.5925 25.024C69.5025 25.342 69.4575 25.687 69.4575 26.059V31H67.2795ZM74.649 19.804V17.815H76.818V19.804H74.649ZM74.649 31V21.28H76.818V31H74.649ZM83.5999 35.59C83.0599 35.59 82.5409 35.506 82.0429 35.338C81.5509 35.17 81.1069 34.927 80.7109 34.609C80.3149 34.297 79.9909 33.919 79.7389 33.475L81.7369 32.485C81.9229 32.839 82.1839 33.1 82.5199 33.268C82.8619 33.442 83.2249 33.529 83.6089 33.529C84.0589 33.529 84.4609 33.448 84.8149 33.286C85.1689 33.13 85.4419 32.896 85.6339 32.584C85.8319 32.278 85.9249 31.894 85.9129 31.432V28.669H86.1829V21.28H88.0819V31.468C88.0819 31.714 88.0699 31.948 88.0459 32.17C88.0279 32.398 87.9949 32.62 87.9469 32.836C87.8029 33.466 87.5269 33.982 87.1189 34.384C86.7109 34.792 86.2039 35.095 85.5979 35.293C84.9979 35.491 84.3319 35.59 83.5999 35.59ZM83.4109 31.27C82.5169 31.27 81.7369 31.045 81.0709 30.595C80.4049 30.145 79.8889 29.533 79.5229 28.759C79.1569 27.985 78.9739 27.112 78.9739 26.14C78.9739 25.156 79.1569 24.28 79.5229 23.512C79.8949 22.738 80.4199 22.129 81.0979 21.685C81.7759 21.235 82.5739 21.01 83.4919 21.01C84.4159 21.01 85.1899 21.235 85.8139 21.685C86.4439 22.129 86.9209 22.738 87.2449 23.512C87.5689 24.286 87.7309 25.162 87.7309 26.14C87.7309 27.106 87.5689 27.979 87.2449 28.759C86.9209 29.533 86.4379 30.145 85.7959 30.595C85.1539 31.045 84.3589 31.27 83.4109 31.27ZM83.7439 29.326C84.3259 29.326 84.7939 29.194 85.1479 28.93C85.5079 28.66 85.7689 28.285 85.9309 27.805C86.0989 27.325 86.1829 26.77 86.1829 26.14C86.1829 25.504 86.0989 24.949 85.9309 24.475C85.7689 23.995 85.5139 23.623 85.1659 23.359C84.8179 23.089 84.3679 22.954 83.8159 22.954C83.2339 22.954 82.7539 23.098 82.3759 23.386C81.9979 23.668 81.7189 24.052 81.5389 24.538C81.3589 25.018 81.2689 25.552 81.2689 26.14C81.2689 26.734 81.3559 27.274 81.5299 27.76C81.7099 28.24 81.9829 28.621 82.3489 28.903C82.7149 29.185 83.1799 29.326 83.7439 29.326ZM94.6917 35.59C94.1517 35.59 93.6327 35.506 93.1347 35.338C92.6427 35.17 92.1987 34.927 91.8027 34.609C91.4067 34.297 91.0827 33.919 90.8307 33.475L92.8287 32.485C93.0147 32.839 93.2757 33.1 93.6117 33.268C93.9537 33.442 94.3167 33.529 94.7007 33.529C95.1507 33.529 95.5527 33.448 95.9067 33.286C96.2607 33.13 96.5337 32.896 96.7257 32.584C96.9237 32.278 97.0167 31.894 97.0047 31.432V28.669H97.2747V21.28H99.1737V31.468C99.1737 31.714 99.1617 31.948 99.1377 32.17C99.1197 32.398 99.0867 32.62 99.0387 32.836C98.8947 33.466 98.6187 33.982 98.2107 34.384C97.8027 34.792 97.2957 35.095 96.6897 35.293C96.0897 35.491 95.4237 35.59 94.6917 35.59ZM94.5027 31.27C93.6087 31.27 92.8287 31.045 92.1627 30.595C91.4967 30.145 90.9807 29.533 90.6147 28.759C90.2487 27.985 90.0657 27.112 90.0657 26.14C90.0657 25.156 90.2487 24.28 90.6147 23.512C90.9867 22.738 91.5117 22.129 92.1897 21.685C92.8677 21.235 93.6657 21.01 94.5837 21.01C95.5077 21.01 96.2817 21.235 96.9057 21.685C97.5357 22.129 98.0127 22.738 98.3367 23.512C98.6607 24.286 98.8227 25.162 98.8227 26.14C98.8227 27.106 98.6607 27.979 98.3367 28.759C98.0127 29.533 97.5297 30.145 96.8877 30.595C96.2457 31.045 95.4507 31.27 94.5027 31.27ZM94.8357 29.326C95.4177 29.326 95.8857 29.194 96.2397 28.93C96.5997 28.66 96.8607 28.285 97.0227 27.805C97.1907 27.325 97.2747 26.77 97.2747 26.14C97.2747 25.504 97.1907 24.949 97.0227 24.475C96.8607 23.995 96.6057 23.623 96.2577 23.359C95.9097 23.089 95.4597 22.954 94.9077 22.954C94.3257 22.954 93.8457 23.098 93.4677 23.386C93.0897 23.668 92.8107 24.052 92.6307 24.538C92.4507 25.018 92.3607 25.552 92.3607 26.14C92.3607 26.734 92.4477 27.274 92.6217 27.76C92.8017 28.24 93.0747 28.621 93.4407 28.903C93.8067 29.185 94.2717 29.326 94.8357 29.326ZM106.117 31.27C105.133 31.27 104.269 31.057 103.525 30.631C102.781 30.205 102.199 29.614 101.779 28.858C101.365 28.102 101.158 27.232 101.158 26.248C101.158 25.186 101.362 24.265 101.77 23.485C102.178 22.699 102.745 22.09 103.471 21.658C104.197 21.226 105.037 21.01 105.991 21.01C106.999 21.01 107.854 21.247 108.556 21.721C109.264 22.189 109.789 22.852 110.131 23.71C110.473 24.568 110.602 25.579 110.518 26.743H108.367V25.951C108.361 24.895 108.175 24.124 107.809 23.638C107.443 23.152 106.867 22.909 106.081 22.909C105.193 22.909 104.533 23.185 104.101 23.737C103.669 24.283 103.453 25.084 103.453 26.14C103.453 27.124 103.669 27.886 104.101 28.426C104.533 28.966 105.163 29.236 105.991 29.236C106.525 29.236 106.984 29.119 107.368 28.885C107.758 28.645 108.058 28.3 108.268 27.85L110.41 28.498C110.038 29.374 109.462 30.055 108.682 30.541C107.908 31.027 107.053 31.27 106.117 31.27ZM102.769 26.743V25.105H109.456V26.743H102.769ZM112.526 31V21.28H114.443V23.647L114.209 23.341C114.329 23.017 114.488 22.723 114.686 22.459C114.89 22.189 115.133 21.967 115.415 21.793C115.655 21.631 115.919 21.505 116.207 21.415C116.501 21.319 116.801 21.262 117.107 21.244C117.413 21.22 117.71 21.232 117.998 21.28V23.305C117.71 23.221 117.377 23.194 116.999 23.224C116.627 23.254 116.291 23.359 115.991 23.539C115.691 23.701 115.445 23.908 115.253 24.16C115.067 24.412 114.929 24.7 114.839 25.024C114.749 25.342 114.704 25.687 114.704 26.059V31H112.526ZM123.117 31.27C121.917 31.27 120.942 31 120.192 30.46C119.442 29.92 118.986 29.161 118.824 28.183L121.038 27.841C121.152 28.321 121.404 28.699 121.794 28.975C122.184 29.251 122.676 29.389 123.27 29.389C123.792 29.389 124.194 29.287 124.476 29.083C124.764 28.873 124.908 28.588 124.908 28.228C124.908 28.006 124.854 27.829 124.746 27.697C124.644 27.559 124.416 27.427 124.062 27.301C123.708 27.175 123.165 27.016 122.433 26.824C121.617 26.608 120.969 26.377 120.489 26.131C120.009 25.879 119.664 25.582 119.454 25.24C119.244 24.898 119.139 24.484 119.139 23.998C119.139 23.392 119.298 22.864 119.616 22.414C119.934 21.964 120.378 21.619 120.948 21.379C121.518 21.133 122.19 21.01 122.964 21.01C123.72 21.01 124.389 21.127 124.971 21.361C125.559 21.595 126.033 21.928 126.393 22.36C126.753 22.792 126.975 23.299 127.059 23.881L124.845 24.277C124.791 23.863 124.602 23.536 124.278 23.296C123.96 23.056 123.534 22.921 123 22.891C122.49 22.861 122.079 22.939 121.767 23.125C121.455 23.305 121.299 23.56 121.299 23.89C121.299 24.076 121.362 24.235 121.488 24.367C121.614 24.499 121.866 24.631 122.244 24.763C122.628 24.895 123.198 25.057 123.954 25.249C124.728 25.447 125.346 25.675 125.808 25.933C126.276 26.185 126.612 26.488 126.816 26.842C127.026 27.196 127.131 27.625 127.131 28.129C127.131 29.107 126.774 29.875 126.06 30.433C125.352 30.991 124.371 31.27 123.117 31.27Z" fill="#369FFF"/>
</svg>
