<svg width="242" height="49" viewBox="0 0 242 49" fill="none" xmlns="http://www.w3.org/2000/svg">
<rect width="242" height="49" fill="white"/>
<path d="M21.3 20.9001C21.3 21.8372 20.5372 22.6001 19.6 22.6001C18.6628 22.6001 17.9 21.8372 17.9 20.9001C17.9 19.9629 18.6628 19.2001 19.6 19.2001C20.5372 19.2001 21.3 19.9629 21.3 20.9001ZM38.1 20.9001C38.1 21.8372 37.3372 22.6001 36.4 22.6001C35.4628 22.6001 34.7 21.8372 34.7 20.9001C34.7 19.9629 35.4628 19.2001 36.4 19.2001C37.3372 19.2001 38.1 19.9629 38.1 20.9001ZM36.9083 28.6001C36.5942 27.2574 35.8464 26.09 34.8185 25.243C34.9411 25.2149 35.0687 25.2001 35.2 25.2001H37.6C38.5372 25.2001 39.3 25.9629 39.3 26.9001V28.1001C39.3 28.3772 39.0772 28.6001 38.8 28.6001H36.9083ZM31.5 20.3001C31.5 22.2347 29.9347 23.8001 28 23.8001C26.0653 23.8001 24.5 22.2347 24.5 20.3001C24.5 18.3654 26.0653 16.8001 28 16.8001C29.9347 16.8001 31.5 18.3654 31.5 20.3001ZM28 27.0001C28.9795 27.0001 29.8975 26.7745 30.724 26.4001H30.88C32.8784 26.4001 34.5 28.0217 34.5 30.0201V31.1001C34.5 31.7072 34.0072 32.2001 33.4 32.2001H22.6C21.9928 32.2001 21.5 31.7072 21.5 31.1001V30.0201C21.5 28.0217 23.1216 26.4001 25.12 26.4001H25.2766C26.1048 26.774 27.0196 27.0001 28 27.0001ZM20.8 25.2001C20.9312 25.2001 21.0589 25.2149 21.1814 25.243C20.1532 26.0902 19.4052 27.2576 19.089 28.6001H17.2C16.9228 28.6001 16.7 28.3772 16.7 28.1001V26.9001C16.7 25.9629 17.4628 25.2001 18.4 25.2001H20.8Z" stroke="#369FFF" stroke-width="1.4"/>
<path d="M62.48 31.27C61.448 31.27 60.539 31.06 59.753 30.64C58.973 30.22 58.361 29.629 57.917 28.867C57.479 28.105 57.26 27.211 57.26 26.185V18.058L59.456 18.04V26.131C59.456 26.617 59.537 27.052 59.699 27.436C59.867 27.82 60.092 28.147 60.374 28.417C60.656 28.681 60.98 28.882 61.346 29.02C61.712 29.158 62.09 29.227 62.48 29.227C62.882 29.227 63.263 29.158 63.623 29.02C63.989 28.876 64.313 28.672 64.595 28.408C64.877 28.138 65.099 27.811 65.261 27.427C65.423 27.043 65.504 26.611 65.504 26.131V18.04H67.7V26.185C67.7 27.211 67.478 28.105 67.034 28.867C66.596 29.629 65.984 30.22 65.198 30.64C64.418 31.06 63.512 31.27 62.48 31.27ZM73.9681 31.27C72.7681 31.27 71.7931 31 71.0431 30.46C70.2931 29.92 69.8371 29.161 69.6751 28.183L71.8891 27.841C72.0031 28.321 72.2551 28.699 72.6451 28.975C73.0351 29.251 73.5271 29.389 74.1211 29.389C74.6431 29.389 75.0451 29.287 75.3271 29.083C75.6151 28.873 75.7591 28.588 75.7591 28.228C75.7591 28.006 75.7051 27.829 75.5971 27.697C75.4951 27.559 75.2671 27.427 74.9131 27.301C74.5591 27.175 74.0161 27.016 73.2841 26.824C72.4681 26.608 71.8201 26.377 71.3401 26.131C70.8601 25.879 70.5151 25.582 70.3051 25.24C70.0951 24.898 69.9901 24.484 69.9901 23.998C69.9901 23.392 70.1491 22.864 70.4671 22.414C70.7851 21.964 71.2291 21.619 71.7991 21.379C72.3691 21.133 73.0411 21.01 73.8151 21.01C74.5711 21.01 75.2401 21.127 75.8221 21.361C76.4101 21.595 76.8841 21.928 77.2441 22.36C77.6041 22.792 77.8261 23.299 77.9101 23.881L75.6961 24.277C75.6421 23.863 75.4531 23.536 75.1291 23.296C74.8111 23.056 74.3851 22.921 73.8511 22.891C73.3411 22.861 72.9301 22.939 72.6181 23.125C72.3061 23.305 72.1501 23.56 72.1501 23.89C72.1501 24.076 72.2131 24.235 72.3391 24.367C72.4651 24.499 72.7171 24.631 73.0951 24.763C73.4791 24.895 74.0491 25.057 74.8051 25.249C75.5791 25.447 76.1971 25.675 76.6591 25.933C77.1271 26.185 77.4631 26.488 77.6671 26.842C77.8771 27.196 77.9821 27.625 77.9821 28.129C77.9821 29.107 77.6251 29.875 76.9111 30.433C76.2031 30.991 75.2221 31.27 73.9681 31.27ZM84.3724 31.27C83.3884 31.27 82.5244 31.057 81.7804 30.631C81.0364 30.205 80.4544 29.614 80.0344 28.858C79.6204 28.102 79.4134 27.232 79.4134 26.248C79.4134 25.186 79.6174 24.265 80.0254 23.485C80.4334 22.699 81.0004 22.09 81.7264 21.658C82.4524 21.226 83.2924 21.01 84.2464 21.01C85.2544 21.01 86.1094 21.247 86.8114 21.721C87.5194 22.189 88.0444 22.852 88.3864 23.71C88.7284 24.568 88.8574 25.579 88.7734 26.743H86.6224V25.951C86.6164 24.895 86.4304 24.124 86.0644 23.638C85.6984 23.152 85.1224 22.909 84.3364 22.909C83.4484 22.909 82.7884 23.185 82.3564 23.737C81.9244 24.283 81.7084 25.084 81.7084 26.14C81.7084 27.124 81.9244 27.886 82.3564 28.426C82.7884 28.966 83.4184 29.236 84.2464 29.236C84.7804 29.236 85.2394 29.119 85.6234 28.885C86.0134 28.645 86.3134 28.3 86.5234 27.85L88.6654 28.498C88.2934 29.374 87.7174 30.055 86.9374 30.541C86.1634 31.027 85.3084 31.27 84.3724 31.27ZM81.0244 26.743V25.105H87.7114V26.743H81.0244ZM90.7815 31V21.28H92.6985V23.647L92.4645 23.341C92.5845 23.017 92.7435 22.723 92.9415 22.459C93.1455 22.189 93.3885 21.967 93.6705 21.793C93.9105 21.631 94.1745 21.505 94.4625 21.415C94.7565 21.319 95.0565 21.262 95.3625 21.244C95.6685 21.22 95.9655 21.232 96.2535 21.28V23.305C95.9655 23.221 95.6325 23.194 95.2545 23.224C94.8825 23.254 94.5465 23.359 94.2465 23.539C93.9465 23.701 93.7005 23.908 93.5085 24.16C93.3225 24.412 93.1845 24.7 93.0945 25.024C93.0045 25.342 92.9595 25.687 92.9595 26.059V31H90.7815ZM101.372 31.27C100.172 31.27 99.1974 31 98.4474 30.46C97.6974 29.92 97.2414 29.161 97.0794 28.183L99.2934 27.841C99.4074 28.321 99.6594 28.699 100.049 28.975C100.439 29.251 100.931 29.389 101.525 29.389C102.047 29.389 102.449 29.287 102.731 29.083C103.019 28.873 103.163 28.588 103.163 28.228C103.163 28.006 103.109 27.829 103.001 27.697C102.899 27.559 102.671 27.427 102.317 27.301C101.963 27.175 101.42 27.016 100.688 26.824C99.8724 26.608 99.2244 26.377 98.7444 26.131C98.2644 25.879 97.9194 25.582 97.7094 25.24C97.4994 24.898 97.3944 24.484 97.3944 23.998C97.3944 23.392 97.5534 22.864 97.8714 22.414C98.1894 21.964 98.6334 21.619 99.2034 21.379C99.7734 21.133 100.445 21.01 101.219 21.01C101.975 21.01 102.644 21.127 103.226 21.361C103.814 21.595 104.288 21.928 104.648 22.36C105.008 22.792 105.23 23.299 105.314 23.881L103.1 24.277C103.046 23.863 102.857 23.536 102.533 23.296C102.215 23.056 101.789 22.921 101.255 22.891C100.745 22.861 100.334 22.939 100.022 23.125C99.7104 23.305 99.5544 23.56 99.5544 23.89C99.5544 24.076 99.6174 24.235 99.7434 24.367C99.8694 24.499 100.121 24.631 100.499 24.763C100.883 24.895 101.453 25.057 102.209 25.249C102.983 25.447 103.601 25.675 104.063 25.933C104.531 26.185 104.867 26.488 105.071 26.842C105.281 27.196 105.386 27.625 105.386 28.129C105.386 29.107 105.029 29.875 104.315 30.433C103.607 30.991 102.626 31.27 101.372 31.27Z" fill="#369FFF"/>
</svg>
